<svg width="275" height="109" viewBox="0 0 275 109" fill="none" xmlns="http://www.w3.org/2000/svg">
<path d="M263.214 32.4903C262.693 31.8685 261.924 31.5107 261.113 31.5107H260.165C260.025 31.5107 259.888 31.5216 259.753 31.542C259.618 31.5216 259.479 31.5107 259.339 31.5107H258.391C258.357 31.5107 258.323 31.5107 258.289 31.5121C258.255 31.5121 258.221 31.5107 258.188 31.5107H256.17C255.782 31.5107 255.409 31.5924 255.072 31.7393C254.594 31.6005 254.08 31.5298 253.538 31.5298H235.474C234.928 31.5298 234.389 31.606 233.873 31.7529C233.529 31.6005 233.151 31.5162 232.759 31.5162H228.214C228.003 31.5162 227.798 31.5407 227.599 31.5856C227.417 31.5475 227.23 31.5284 227.042 31.5284H217.698C216.977 31.5284 216.283 31.8128 215.77 32.3202L214.847 33.2317C214.744 32.98 214.603 32.7419 214.426 32.527C213.905 31.8944 213.128 31.5284 212.309 31.5284H197.347C196.356 31.5284 195.444 32.0617 194.958 32.9242L192.633 37.0477L192.032 33.7745C191.792 32.4726 190.657 31.5271 189.334 31.5271H182.254C181.246 31.5271 180.319 32.0794 179.841 32.9664L177.537 37.2314L176.739 33.6684C176.459 32.4154 175.346 31.5257 174.063 31.5257H166.228C165.77 31.5257 165.325 31.64 164.932 31.8522C164.542 31.6427 164.099 31.5257 163.635 31.5257H155.957C155.048 31.5257 154.198 31.976 153.687 32.727L147.631 41.646L148.965 34.7921C149.122 33.9881 148.911 33.1555 148.39 32.5243C147.869 31.8917 147.092 31.5257 146.273 31.5257H138.932C137.619 31.5257 136.49 32.4562 136.24 33.7446L135.273 38.7156H131.491L132.254 34.7935C132.41 33.9895 132.199 33.1569 131.678 32.5256C131.157 31.893 130.38 31.5271 129.561 31.5271H122.221C121.272 31.5271 120.419 32.0127 119.924 32.7692C119.87 32.6848 119.81 32.6045 119.744 32.5256C119.223 31.893 118.447 31.5271 117.628 31.5271H109.767C108.97 31.5271 108.213 31.874 107.692 32.4767L103.621 37.1865L101.676 33.0929C101.222 32.1365 100.258 31.5271 99.1991 31.5271H91.3385C91.1344 31.5271 90.9344 31.5502 90.7413 31.5924C90.5481 31.5488 90.3481 31.5271 90.1454 31.5271H82.7786C81.4658 31.5271 80.3366 32.4576 80.0863 33.7459L79.3639 37.4559L75.5084 32.5705C74.9887 31.9121 74.1956 31.5271 73.3548 31.5271H66.0928C65.3269 31.5271 64.6235 31.8441 64.1202 32.3637C63.3365 31.8182 62.3652 31.5271 61.2932 31.5271H42.0837C41.1967 31.5271 40.3641 31.7216 39.6227 32.0808C39.1506 31.7243 38.5724 31.5271 37.9698 31.5271H13.8682C12.5554 31.5271 11.4275 32.4576 11.1759 33.7459L10.0794 39.3809C9.9229 40.1849 10.1338 41.0175 10.6548 41.6487C11.1759 42.2814 11.9527 42.6473 12.7717 42.6473H17.8257L15.698 53.5771C15.5415 54.3811 15.7524 55.2137 16.2734 55.8449C16.7945 56.4776 17.5713 56.8435 18.3903 56.8435H24.3844C24.1245 57.1755 23.9382 57.5727 23.8525 58.0094L18.3794 86.1814C18.223 86.9854 18.4352 87.8167 18.9549 88.4493C19.4759 89.0819 20.2514 89.4478 21.0717 89.4478H27.3474C28.6603 89.4478 29.7894 88.5173 30.0397 87.2276L31.3703 80.3764H36.1971C36.695 80.3764 37.1685 80.3383 37.6188 80.2608L36.4692 86.1814C36.3127 86.9854 36.525 87.8167 37.0447 88.4493C37.5657 89.0819 38.3425 89.4478 39.1615 89.4478H45.4372C46.3936 89.4478 47.252 88.954 47.7445 88.1881C48.237 88.9526 49.0941 89.4478 50.0518 89.4478H56.6228C57.1533 89.4478 57.6553 89.2955 58.0798 89.0288C58.7886 89.3077 59.6089 89.4478 60.5368 89.4478H71.2053C74.6826 89.4478 77.0675 87.4426 77.7463 83.9462L81.9433 62.337C82.3256 60.3684 82.0181 58.7631 81.0304 57.5645C80.806 57.2925 80.557 57.0517 80.2808 56.8422H85.996C84.5989 57.77 83.6479 59.2841 83.2588 61.2908L81.912 68.2236C81.7188 69.2154 81.2685 71.5376 83.4847 73.3185C83.4915 73.3239 83.4983 73.3293 83.5051 73.3348L90.1944 78.6051L90.1495 78.8364H84.6397C84.5717 78.8364 84.505 78.8391 84.437 78.8446C82.75 78.9697 81.4848 79.3792 80.4522 80.1343C79.4428 80.873 78.7272 81.9164 78.3177 83.2442C78.2524 83.4075 78.2007 83.5789 78.1667 83.7571L77.7028 86.191C77.5491 86.9936 77.7627 87.8235 78.2837 88.4534C78.8047 89.0832 79.5802 89.4478 80.3965 89.4478H94.477C95.6416 89.4478 96.6837 89.2261 97.5816 88.8016C98.0727 89.2152 98.6971 89.4478 99.3501 89.4478H105.626C106.412 89.4478 107.133 89.1145 107.638 88.569C108.143 89.1132 108.862 89.4478 109.65 89.4478H122.35C123.513 89.4478 124.55 88.7132 124.936 87.6167L125.771 85.2441H125.858L125.809 86.6059C125.782 87.35 126.06 88.0724 126.577 88.6084C127.094 89.1445 127.806 89.4465 128.551 89.4465H134.826C135.083 89.4465 135.334 89.4111 135.571 89.3445C135.81 89.4125 136.06 89.4465 136.313 89.4465H142.589C143.902 89.4465 145.031 88.5159 145.281 87.2262L149.242 66.8414H149.727L146.421 83.8564C146.397 83.9789 146.382 84.1027 146.375 84.2278C146.262 86.2563 147.168 87.4657 147.948 88.1241C148.842 88.8792 150.043 89.3077 151.621 89.437C151.694 89.4424 151.769 89.4465 151.843 89.4465H163.392C163.601 89.4465 163.805 89.4234 164.001 89.3785C164.198 89.4234 164.402 89.4465 164.609 89.4465H170.885C171.841 89.4465 172.7 88.9526 173.192 88.1867C173.685 88.9513 174.542 89.4465 175.499 89.4465H182.07C183.383 89.4465 184.512 88.5159 184.763 87.2262L184.813 86.9678C184.878 86.629 184.88 86.2794 184.817 85.9406L183.149 77.0229C185.058 76.204 186.35 74.4966 186.822 72.0709L188.478 63.545H189.043C189.126 63.545 189.209 63.541 189.29 63.5342C189.372 63.541 189.455 63.545 189.538 63.545H190.055C190.138 63.545 190.221 63.541 190.302 63.5342C190.384 63.541 190.467 63.545 190.55 63.545H191.157C191.69 63.545 192.193 63.3913 192.619 63.1233C192.606 63.1941 192.593 63.2648 192.581 63.3355L191.906 67.1597C191.766 67.9583 191.985 68.7773 192.506 69.399C192.957 69.9364 193.593 70.2765 194.28 70.3595C194.193 70.9499 194.299 71.5635 194.6 72.1009C194.648 72.1852 195.771 74.1878 196.828 75.8502C197.091 76.2625 197.371 76.6747 197.692 77.0624H192.214C190.883 77.0624 189.743 78.0174 189.513 79.3289L188.716 83.8483C188.255 86.4658 188.742 88.72 190.126 90.3702C191.067 91.4912 192.878 92.8285 196.162 92.8285H203.711C206.315 92.8285 208.592 91.981 210.298 90.377C211.795 88.9703 212.793 87.0426 213.189 84.8006L214.433 77.7481C214.467 77.5576 214.495 77.3726 214.52 77.1916H215.291L215.098 78.1861C214.941 78.9901 215.152 79.8227 215.673 80.454C216.194 81.0866 216.971 81.4525 217.79 81.4525H220.778C220.937 81.4525 221.095 81.4389 221.251 81.4117C222.384 81.2131 223.388 80.6091 224.109 79.7357L223.27 84.4945C223.128 85.2931 223.349 86.112 223.87 86.7338C224.391 87.3555 225.16 87.7133 225.97 87.7133H234.125L233.79 89.6097C233.65 90.4083 233.869 91.2273 234.39 91.849C234.911 92.4707 235.68 92.8285 236.491 92.8285H243.296C244.626 92.8285 245.766 91.8735 245.996 90.562L246.504 87.6861C249.437 87.4521 250.641 85.7488 251.91 83.953C253.065 82.3178 254.383 80.4907 254.395 80.473C254.998 79.6377 255.083 78.5371 254.613 77.6202C254.145 76.7032 253.202 76.1264 252.174 76.125L248.543 76.121L251.69 58.2774C251.794 57.6843 251.7 57.0789 251.431 56.5524C252.145 56.3184 252.807 55.9456 253.377 55.4491C254.379 54.5757 255.053 53.3826 255.321 52.0003L256.321 46.862C256.54 45.7355 256.459 44.775 256.076 43.9248C255.993 43.7425 255.888 43.5452 255.752 43.3452C256.582 43.0024 257.216 42.2609 257.397 41.3345L257.798 39.2734C257.858 39.2775 257.919 39.2789 257.98 39.2789H258.587C258.67 39.2789 258.753 39.2748 258.835 39.268C258.916 39.2748 258.999 39.2789 259.082 39.2789H259.599C259.682 39.2789 259.765 39.2748 259.847 39.268C259.928 39.2748 260.011 39.2789 260.094 39.2789H260.701C262.032 39.2789 263.17 38.3238 263.402 37.0124L263.804 34.7268C263.946 33.9282 263.725 33.1093 263.204 32.4875L263.214 32.4903ZM228.094 67.8046H227.04L227.233 66.8101C227.389 66.0061 227.179 65.1735 226.657 64.5422C226.136 63.9096 225.36 63.5437 224.541 63.5437H222.486C222.353 63.5437 222.22 63.5532 222.089 63.5723C222.028 63.5695 221.965 63.5682 221.904 63.5682C219.797 63.5682 217.947 64.9463 217.298 66.9978C217.266 67.0972 217.24 67.1978 217.22 67.2999L217.122 67.8019H216.992C216.823 67.8019 216.654 67.8168 216.49 67.8481C216.262 67.8617 216.038 67.8889 215.82 67.9311L216.49 64.1382C216.832 62.1968 217.085 59.378 215.349 57.3088C215.207 57.1387 215.056 56.9796 214.896 56.8286C214.985 56.8367 215.073 56.8422 215.163 56.8422H224.69C226.003 56.8422 227.131 55.913 227.383 54.6246L227.406 54.5076C227.536 54.7444 227.689 54.9688 227.861 55.1783C228.746 56.2504 230.078 56.8422 231.614 56.8422H237.134L230.044 68.6154C229.531 68.0971 228.83 67.8019 228.094 67.8019V67.8046ZM210.98 55.1566C211.05 54.9879 211.104 54.8097 211.14 54.6246L211.339 53.6016L212.854 55.596C212.29 55.3892 211.665 55.2436 210.978 55.1566H210.98ZM220.238 43.9778L223.826 40.8556C224.01 41.4882 224.42 42.0501 225.009 42.4174C225.456 42.6963 225.96 42.8337 226.46 42.8337C227.134 42.8337 227.803 42.5861 228.324 42.1031L228.735 41.7236C228.57 42.7493 228.664 43.6296 229.021 44.4064C229.061 44.4975 229.109 44.5914 229.163 44.688C228.467 45.0689 227.949 45.7464 227.788 46.5708L226.934 50.9569C226.855 51.3609 226.817 51.7582 226.818 52.1432L220.239 43.9778H220.238ZM165.678 66.8441L165.674 66.8645C165.647 66.8577 165.619 66.8509 165.591 66.8441H165.678ZM132.911 55.7905H130.451C130.37 55.7905 130.287 55.7946 130.205 55.8014C127.29 56.064 125.299 57.3006 124.121 59.5807C124.083 59.6555 124.048 59.7317 124.016 59.8093L117.319 76.3155L116.557 72.5906L123.567 60.0963C123.71 59.8406 123.812 59.5644 123.868 59.2773L123.912 59.0556C124.063 58.2747 123.868 57.468 123.38 56.8435H125.703C127.016 56.8435 128.145 55.913 128.396 54.6246L129.212 50.4331H132.994L132.382 53.5771C132.229 54.358 132.424 55.1661 132.914 55.7905H132.911ZM34.536 55.2137C34.7101 55.4259 34.9033 55.6191 35.1128 55.7919H27.8902C28.1501 55.4599 28.3365 55.0641 28.4222 54.626L30.754 42.6473H35.2393L33.6218 50.9555C33.3021 52.5976 33.6272 54.109 34.536 55.2123V55.2137ZM52.0013 42.3875L51.3007 45.9858H47.5187L48.2193 42.3875H52.0013ZM76.8648 55.7933C76.8022 55.7933 76.7396 55.7919 76.677 55.7919H71.7359C71.9957 55.4599 72.1821 55.0641 72.2678 54.626L73.0773 50.4699L76.7899 55.6912C76.8144 55.7266 76.8403 55.7606 76.8661 55.7933H76.8648ZM99.6209 70.9404L94.092 66.5938L94.1301 66.3993L98.9107 66.3952C98.9747 66.3952 99.0386 66.3924 99.1025 66.3884C99.6209 66.3516 100.098 66.2877 100.542 66.1965L99.6195 70.9418L99.6209 70.9404ZM160.19 67.5094L160.339 66.8672L164.991 66.8836L164.859 67.5339L160.19 67.5107V67.5094ZM163.579 77.6487L163.434 78.3956H159.35L159.495 77.6487H163.579ZM152.381 55.5674L153.266 54.1702H158.914L159.012 54.6505C159.099 55.0777 159.283 55.464 159.539 55.7905H154.139C153.946 55.7905 153.757 55.8109 153.575 55.849C153.391 55.8109 153.203 55.7905 153.011 55.7905H152.224C152.279 55.7198 152.331 55.645 152.38 55.5674H152.381ZM180.681 55.7905C180.789 55.6531 180.884 55.5048 180.964 55.3457L182.868 51.6072L183.451 54.6233C183.537 55.0695 183.729 55.4722 183.997 55.8082C183.819 55.7973 183.635 55.7905 183.449 55.7905H180.68H180.681ZM118.875 37.0981L115.667 53.5771C115.515 54.358 115.709 55.1661 116.199 55.7905H114.349C113.753 55.7905 113.187 55.9837 112.725 56.3238C112.258 55.981 111.691 55.7905 111.1 55.7905H106.453C106.713 55.4586 106.899 55.0627 106.985 54.6246L108.169 48.5462L118.875 37.0967V37.0981ZM91.6623 40.8366L95.4062 47.6959L94.2607 53.5771C94.107 54.3634 94.307 55.177 94.8035 55.8041L89.808 55.7905H89.7998C89.2883 55.7905 88.8013 55.8341 88.3401 55.9184C88.6557 55.562 88.8815 55.1198 88.9781 54.6246L91.6623 40.8366ZM84.9458 70.9472C84.9458 70.9472 84.9526 70.9554 84.9567 70.9581C84.9526 70.954 84.9499 70.9499 84.9458 70.9472ZM194.308 58.5413C194.313 57.9169 194.105 57.3047 193.71 56.8095C194.502 56.683 195.208 56.2136 195.63 55.513L199.197 49.572L198.417 53.5785C198.294 54.2138 198.4 54.8668 198.707 55.4246C196.603 55.9878 195.227 57.1537 194.309 58.5427L194.308 58.5413Z" fill="black"/>
<path d="M188.841 58.5176L188.438 60.8031H189.045L189.336 59.1529L189.542 60.8031H190.059L190.846 59.1488L190.555 60.8031H191.162L191.565 58.5176H190.616L189.974 59.8331L189.791 58.5176H188.842H188.841ZM187.195 59.0658L186.889 60.8031H187.554L187.86 59.0658H188.54L188.637 58.5176H186.618L186.521 59.0658H187.194H187.195Z" fill="white"/>
<path d="M39.9447 58.5326H26.5443L21.0713 86.7046H27.347L29.1088 77.6332H36.1967C38.4115 77.6332 39.6454 76.6006 40.0821 74.3518L42.5173 61.814C42.9472 59.6019 42.1214 58.5326 39.9433 58.5326H39.9447ZM34.1506 72.3982H30.1264L31.7888 63.8438H35.813L34.1506 72.3982ZM57.9978 58.5326H44.6341L39.1611 86.7046H45.4368L47.419 76.5H48.2992L50.0514 86.7046H56.6223L56.6727 86.4462L54.4987 74.8307H54.8306C57.0087 74.8307 58.2494 73.7614 58.6793 71.5493L60.5704 61.814C61.0003 59.6019 60.1745 58.5326 57.9964 58.5326H57.9978ZM52.4825 70.9602H48.4951L49.8773 63.8438H53.8647L52.4825 70.9602ZM183.45 58.5326H170.086L164.613 86.7046H170.889L172.871 76.5H173.751L175.503 86.7046H182.074L182.124 86.4462L179.95 74.8307H180.282C182.46 74.8307 183.701 73.7614 184.131 71.5493L186.022 61.814C186.452 59.6019 185.626 58.5326 183.448 58.5326H183.45ZM177.934 70.9602H173.947L175.329 63.8438H179.316L177.934 70.9602ZM157.234 74.9055H163.953L164.999 69.5223H158.28L159.333 64.1023H167.675L168.757 58.534H154.139L149.117 84.3837C149.037 85.8408 149.898 86.5482 151.846 86.7074H163.395L164.477 81.1391H156.023L157.234 74.9069V74.9055ZM99.0545 73.9831L91.081 67.7142L91.8687 63.6574L98.909 63.6506C101.067 63.4969 102.196 62.7745 102.676 61.0481L103.162 58.568L89.8008 58.5312C87.6227 58.5312 86.382 59.6006 85.9521 61.8126L84.6053 68.7454C84.3618 69.9998 84.4692 70.5888 85.2025 71.1793L93.206 77.4849L92.4115 81.5785H84.6406C82.4122 81.7445 81.2872 82.5199 80.845 84.4014C80.8505 84.3579 80.8573 84.3143 80.8627 84.2708L80.3988 86.7046H94.4794C96.6574 86.7046 97.9362 85.6353 98.3648 83.4232L99.7184 76.4537C99.9619 75.1994 99.7878 74.5736 99.0545 73.9831ZM76.6766 58.5326H66.008C63.83 58.5326 62.626 59.6019 62.1961 61.814L57.9991 83.4232C57.5692 85.6353 58.3583 86.7046 60.5363 86.7046H71.2049C73.383 86.7046 74.6237 85.6353 75.0536 83.4232L79.2506 61.814C79.6805 59.6019 78.8547 58.5326 76.6766 58.5326ZM69.1343 81.3948H64.668L68.0773 63.8424H72.5436L69.1343 81.3948ZM153.011 58.5326H136.842L135.761 64.1009H140.707L136.316 86.7046H142.591L146.983 64.1009H151.929L153.011 58.5326ZM134.358 58.5326H130.449C128.5 58.7081 127.318 59.3652 126.556 60.8399L116.448 85.7496L113.663 72.1397L121.173 58.7544L121.216 58.5326H114.35L108.96 69.5576L111.101 58.5326H104.826L99.3525 86.7046H105.628L107.848 75.2728L109.651 86.7046H122.351L123.832 82.5009H128.705L128.553 86.7046H134.829L134.842 86.6312L134.358 58.5326ZM128.858 77.1543H125.757L129.171 67.5673L128.859 77.1543H128.858Z" fill="white"/>
<path d="M258.389 34.2529L257.987 36.5385H258.593L258.885 34.8883L259.09 36.5385H259.607L260.395 34.8842L260.104 36.5385H260.71L261.113 34.2529H260.165L259.523 35.5685L259.339 34.2529H258.391H258.389ZM256.743 34.8012L256.437 36.5385H257.102L257.408 34.8012H258.089L258.185 34.2529H256.166L256.07 34.8012H256.742H256.743Z" fill="white"/>
<path d="M18.3901 54.1004L21.1532 39.9042H12.7715L13.868 34.272H37.9709L36.8744 39.9042H28.4927L25.7297 54.1004H18.3887H18.3901ZM142.525 54.0487L155.954 34.272H163.632L169.361 54.0487L169.351 54.1004H161.699L161.152 51.4272H151.756L150.064 54.1004H142.515L142.525 54.0487ZM155.036 46.3405H159.826L158.521 40.6049L155.036 46.3405ZM69.574 54.1004L71.6051 43.6672L79.0236 54.1004H86.2857L90.1452 34.272H82.7784L80.9146 43.8495L73.356 34.272H66.094L62.2344 54.1004H69.5753H69.574ZM96.9529 54.1004H104.294L105.627 47.2493L117.592 34.4543L117.627 34.272H109.767L102.947 42.1626L99.199 34.272H91.3383L91.3029 34.4543L98.2875 47.2493L96.9542 54.1004H96.9529ZM126.948 47.69H136.319L135.071 54.1004H142.412L146.272 34.272H138.931L137.531 41.4606H128.16L129.56 34.272H122.219L118.359 54.1004H125.7L126.948 47.69ZM36.3139 51.4802L39.1532 36.8936C39.462 35.31 40.5748 34.272 42.0849 34.272H61.2943C62.8044 34.272 63.5132 35.31 63.2044 36.8936L60.3652 51.4802C60.0563 53.0638 58.9435 54.1018 57.4348 54.1018H38.2253C36.7152 54.1018 36.0065 53.0638 36.3153 51.4802H36.3139ZM44.1909 48.7281H53.5616L55.3302 39.6444H45.9594L44.1909 48.7281ZM232.759 34.2598H228.214L226.46 40.0906L232.759 34.2598ZM208.448 54.1004L209.816 47.067L215.163 54.1004H224.69L224.725 53.9181L216.444 43.64L227.006 34.4529L227.041 34.2706H217.696L211.024 40.8633L212.307 34.2706H197.345L191.302 44.9896L189.332 34.2706H182.253L176.465 44.9896L174.061 34.2706H166.227L171.389 54.0991H178.522L184.046 43.2509L186.146 54.0991H193.279L204.867 34.7944L201.11 54.0991H208.451L208.448 54.1004ZM253.538 34.272H235.474C233.964 34.272 232.774 35.31 232.465 36.8936L231.469 42.0061C231.266 43.0441 231.458 43.6672 232.465 43.9788L245.917 48.2873L245.755 49.1185H237.425L237.82 47.0942H230.479L229.624 51.4802C229.317 53.0638 230.103 54.1018 231.613 54.1018H249.626C251.136 54.1018 252.326 53.0638 252.635 51.4802L253.635 46.3418C253.838 45.3038 253.629 44.629 252.624 44.3175L239.188 40.0607L239.345 39.2567H247.675L247.371 40.8144H254.712L255.491 36.8174C255.799 35.2338 255.048 34.2734 253.538 34.2734V34.272Z" fill="white"/>
<path d="M243.304 90.087L244.206 84.9717H245.806C247.811 84.9717 248.371 84.2221 249.679 82.3719C250.856 80.7054 252.181 78.8688 252.181 78.8688L245.283 78.862L248.996 57.8037H239.758L227.046 78.9123L225.979 84.9717H237.402L236.5 90.087H243.305H243.304ZM238.478 78.862H234.058L239.768 68.7294C239.911 68.4805 240.425 67.5377 240.67 66.9908C240.507 67.637 240.265 68.7294 240.211 69.0274L238.477 78.862H238.478Z" fill="#F18449"/>
<path fill-rule="evenodd" clip-rule="evenodd" d="M228.094 70.5472L227.685 72.6532C227.674 72.6927 227.664 72.7335 227.655 72.7797C227.472 73.732 226.745 74.3238 225.882 74.4517H222.952L222.408 77.2501C222.159 77.9997 221.568 78.5752 220.783 78.7126H217.796L218.624 74.4517H214.242L214.705 72.075C214.985 71.1254 215.848 70.5867 216.796 70.5867C216.866 70.5867 216.933 70.5717 216.993 70.5486H219.383L219.913 67.8277C220.204 66.9081 221.013 66.2414 222.07 66.3203C222.246 66.3326 222.382 66.3204 222.485 66.2891H224.539L223.711 70.55H228.093L228.094 70.5472Z" fill="white"/>
<path d="M196.167 90.0874H203.716C207.789 90.0874 209.941 87.4549 210.494 84.3259L211.737 77.2734C212.114 75.1375 211.786 73.8954 210.401 73.2995C211.582 72.803 212.379 71.6602 212.703 69.8222L213.789 63.6635C214.436 59.9876 213.729 57.8027 209.359 57.8027H201.711C197.439 57.8027 195.97 59.9386 195.287 63.8118L194.612 67.636H201.367L202.041 63.8118H206.958L205.732 70.765L196.998 70.7596C196.998 70.7596 198.119 72.7608 199.148 74.377C200.52 76.5346 201.269 76.5755 203.904 76.5755C205.38 76.5755 205.004 76.5755 205.004 76.5755L203.682 84.0756H198.467L199.221 79.8038H192.218L191.42 84.3232C190.886 87.3529 191.994 90.0846 196.166 90.0846L196.167 90.0874Z" fill="#F18449"/>
<path fill-rule="evenodd" clip-rule="evenodd" d="M50.5331 91.7637C70.2337 102.216 100.343 108.9 134.091 108.9C167.84 108.9 197.704 102.27 217.408 91.8929C196.64 100.285 167.018 105.538 134.129 105.538C101.241 105.538 71.3138 100.232 50.5317 91.7637H50.5331Z" fill="#F18449"/>
<path fill-rule="evenodd" clip-rule="evenodd" d="M121.531 12.7373C92.8308 14.1753 67.5878 20.4769 50.3755 29.6734C67.2586 22.7515 90.1181 17.9274 115.879 16.3615C119.008 16.1697 120.683 14.2596 121.532 12.7373H121.531ZM152.976 16.3656C153.315 16.3846 153.636 16.42 153.943 16.4663C178.903 18.1178 201.059 22.8318 217.566 29.5442C200.492 20.4877 175.603 14.2678 147.308 12.7754C148.167 14.2964 149.85 16.1847 152.976 16.3656Z" fill="#F18449"/>
<path fill-rule="evenodd" clip-rule="evenodd" d="M152.479 18.4215C152.385 18.4215 152.17 18.5712 151.961 18.7956C151.747 19.0201 151.362 19.4133 151.162 19.5847C150.947 19.7411 150.694 19.9044 150.27 20.02C149.866 20.1411 148.987 20.4037 148.659 20.5533C148.602 20.5288 148.022 20.284 147.524 20.133C147.002 19.9738 146.705 19.7275 146.58 19.5956C146.455 19.4636 146.133 19.2827 145.994 19.2051C145.855 19.1276 145.769 19.1113 145.62 19.0582C145.47 19.0051 145.405 19.0745 145.246 19.1398C145.086 19.2051 145.04 19.1194 144.512 18.8637C143.984 18.6065 143.13 17.9413 143.08 17.9032C143.029 17.8651 142.835 17.9358 142.835 17.9358L139.692 16.1128C139.692 16.1128 139.455 15.8272 139.269 15.6081C139.083 15.3891 138.785 15.4013 138.683 15.3796C138.581 15.3578 137.797 15.3632 137.706 15.3632C137.615 15.3632 136.827 14.9891 136.827 14.9891L136.729 14.6313C136.729 14.6313 135.204 14.6898 135.084 14.6966C134.966 14.7021 133.761 14.2912 133.587 14.2409C133.412 14.1905 133.353 14.2327 133.163 14.2409C132.974 14.249 132.675 14.2409 132.675 14.2409C132.675 14.2409 132.6 14.011 132.528 13.8994C132.456 13.7879 132.329 13.8382 132.283 13.8341C132.238 13.83 132.234 13.7688 132.234 13.7688L132.43 13.5892C132.43 13.5892 132.385 13.4872 132.349 13.3933C132.313 13.3008 132.023 12.8723 132.023 12.8723C132.023 12.8723 132 12.6614 131.958 12.4329C131.916 12.2043 131.521 10.0208 131.535 9.95821C131.549 9.89563 131.698 6.86457 131.698 6.86457C131.698 6.86457 131.7 6.68499 131.682 6.61969C131.664 6.55439 131.584 6.29454 131.584 6.29454C131.584 6.29454 131.675 4.12872 131.682 3.98315C131.689 3.83622 131.561 3.68385 131.535 3.60903C131.509 3.53284 131.168 3.39 130.754 3.21858C130.339 3.04717 128.59 2.60638 128.247 2.56693C127.904 2.52748 127.006 2.32205 126.749 2.24179C126.595 2.19417 126.501 2.16288 126.444 2.14655C126.342 2.02275 126.207 1.84726 126.07 1.78196C125.944 1.70033 125.852 1.61598 125.852 1.61598C125.852 1.61598 125.775 1.50579 125.666 1.41872C125.636 1.33437 125.583 1.20105 125.583 1.20105C125.583 1.20105 125.605 0.934402 125.334 0.900391C125.19 0.911274 125.163 0.995622 125.22 1.23234C125.178 1.35478 125.262 1.47042 125.262 1.47042V1.57381C125.262 1.57381 125.21 1.63231 125.159 1.57381C125.13 1.51123 125.081 1.39559 124.961 1.31396C124.937 1.21737 124.851 1.05548 124.64 1.10582C124.496 1.19425 124.537 1.32349 124.537 1.32349L124.651 1.50035C124.651 1.50035 124.466 1.57245 124.579 1.84318C124.545 1.92888 124.54 1.94929 124.568 1.98874C124.616 2.04316 124.643 2.09622 124.599 2.12343C124.556 2.15064 124.537 2.2173 124.537 2.2173C124.537 2.2173 124.379 2.42136 124.443 2.51796C124.336 2.62679 124.273 2.79957 124.64 2.76692C124.673 2.82269 124.775 2.83902 124.775 2.83902C124.775 2.83902 124.877 2.91793 124.921 2.99411C124.956 3.07029 124.987 3.1628 125.076 3.16008C125.126 3.22947 125.259 3.19273 125.459 3.18593C125.55 3.21042 125.836 3.21178 125.931 3.20362C125.978 3.20906 126.051 3.21994 126.134 3.23219C126.52 3.31926 127.228 3.50836 127.711 3.65528C128.361 3.85391 129.828 4.4525 129.926 4.46883C130.024 4.48515 130.102 4.4906 130.138 4.55046C130.172 4.61031 130.215 4.77357 130.203 4.8103C130.191 4.84703 129.958 5.26605 129.958 5.26605C129.958 5.26605 129.953 5.28509 129.893 5.33135C129.833 5.3776 129.766 5.90682 129.697 6.22652C129.628 6.54622 129.49 6.7979 129.468 6.82919C129.447 6.86048 129.345 6.91354 129.273 6.97612C129.202 7.0387 128.999 7.51214 128.98 7.54615C128.961 7.58016 128.927 7.55159 128.898 7.54615C128.87 7.54071 128.866 7.90394 128.866 7.90394C128.866 7.90394 128.854 7.91075 128.833 7.88762C128.813 7.86449 128.621 7.62777 128.621 7.62777C128.621 7.62777 128.658 7.56383 128.704 7.49445C128.754 7.44275 128.806 7.39106 128.83 7.3516C128.875 7.27678 128.862 7.16931 128.862 7.16931C128.862 7.16931 128.82 6.96388 128.9 6.75709C128.932 6.58295 128.941 6.44555 128.956 6.29046C128.935 6.11496 128.96 6.00341 128.738 5.65785C128.766 5.56807 128.696 5.38849 128.696 5.38849C128.696 5.38849 128.655 5.26469 128.602 5.24292C128.537 5.13681 128.361 4.74772 128.187 4.54773C128.013 4.34775 127.779 4.1464 127.357 4.03893C126.934 3.93145 126.666 3.9437 126.267 4.1328C125.869 4.32054 125.655 4.4457 125.5 4.65113C125.345 4.85791 125.187 5.14905 125.137 5.57487C125.122 5.88777 125.292 6.38433 125.292 6.38433C125.292 6.38433 125.45 6.75845 125.478 6.79926C125.466 6.86729 125.473 6.88089 125.499 6.89314C125.491 6.9217 125.519 6.91354 125.519 6.91354C125.519 6.91354 125.516 6.92579 125.54 6.94483C125.55 6.98837 125.584 7.11353 125.665 7.11081C125.674 7.09856 125.719 7.12849 125.81 7.23597C125.901 7.34344 126.052 7.54207 126.236 7.73389C126.42 7.92571 126.563 8.17875 126.568 8.23181C126.573 8.28487 126.61 8.32568 126.61 8.32568C126.614 8.32976 126.622 8.33656 126.632 8.34337C126.622 8.38282 126.603 8.42907 126.569 8.47397C126.505 8.55696 125.885 8.68484 125.707 8.73381C125.529 8.78279 125.024 9.16099 124.861 9.32016C124.696 9.47933 124.425 10.2698 124.421 10.3459C124.417 10.4221 124.476 11.237 124.438 11.3717C124.399 11.5064 124.378 12.3227 124.389 12.5118C124.399 12.7009 124.653 12.7906 124.697 12.8532C124.742 12.9158 124.816 13.9049 124.844 14.0096C124.873 14.1144 124.783 14.3756 124.599 15.0844C124.416 15.7931 124.633 16.9835 124.665 17.1032C124.696 17.223 124.591 18.1018 124.616 18.5521C124.64 19.0024 125.078 19.9425 125.121 19.9683C125.163 19.9942 125.319 20.1112 125.365 20.1806C125.412 20.2486 125.439 20.2431 125.529 20.2459C125.618 20.2486 125.987 20.3914 126.017 20.4254C126.047 20.4581 126.065 20.4472 126.131 20.4418C126.198 20.4363 126.311 20.522 126.538 20.605C126.765 20.688 126.904 20.6513 126.945 20.5724C126.986 20.4935 126.863 20.3928 126.863 20.3928C126.863 20.3928 127.156 20.2785 127.221 20.1806C127.286 20.084 127.171 20.0472 127.09 20.001C127.01 19.9547 127.033 19.9806 126.992 19.952C126.952 19.9234 126.863 19.9316 126.797 19.903C126.73 19.8745 126.588 19.8785 126.439 19.8051C126.289 19.7316 126.179 19.5765 126.179 19.5765C126.179 19.5765 126.24 19.5956 126.342 19.6582C126.443 19.7194 126.545 19.6854 126.554 19.6092C126.564 19.533 126.451 19.3344 126.407 19.2351C126.364 19.1357 126.338 19.0419 126.212 18.9426C126.086 18.8419 125.867 18.8351 125.723 18.6977C125.579 18.5616 125.504 18.3617 125.478 18.1766C125.454 17.9916 125.597 17.2243 125.869 16.2883C126.141 15.3524 125.979 14.5157 125.967 14.3347C125.954 14.1538 125.979 13.894 126.032 13.6994C126.085 13.5049 126.13 13.0641 126.13 13.0641C126.13 13.0641 126.432 13.5117 126.52 13.6178C126.61 13.7239 126.754 13.8001 126.829 13.8627C126.904 13.9253 127.035 14.2055 127.187 14.6436C127.339 15.0816 127.48 16.6788 127.48 16.6788L127.724 17.1998C127.724 17.1998 127.835 17.2679 127.953 17.3141C128.07 17.3604 128.133 17.5808 128.182 17.6719C128.23 17.7631 128.572 18.1603 128.572 18.1603C128.572 18.1603 128.889 18.3494 129.224 18.5181C129.558 18.6868 130.738 19.6092 130.738 19.6092C130.738 19.6092 131.057 19.7167 131.242 19.7398C131.428 19.7616 131.829 19.7031 132.121 19.6908C132.414 19.6786 134.082 19.7724 134.189 19.7724C134.297 19.7724 134.962 19.5942 135.035 19.5765C135.11 19.5602 136.29 19.6908 136.29 19.6908L136.355 19.6582C136.355 19.6582 136.407 19.6527 136.486 19.6745C136.565 19.6962 136.567 19.7561 136.567 19.7561C136.567 19.7561 136.264 20.5669 136.209 20.7329C136.155 20.8989 136.052 20.9288 135.997 20.9288C135.943 20.9288 135.801 20.9451 135.801 20.9451L135.147 21.7437C135.067 21.7179 135.015 21.7097 135.015 21.7097C135.015 21.7097 134.501 21.6308 134.382 21.6471C134.264 21.6634 133.94 21.7791 133.905 22.1872C133.821 22.3287 133.791 22.4253 133.791 22.4253C133.791 22.4253 133.686 22.5423 133.676 22.5804C133.524 22.7396 133.298 23.1218 133.251 23.2552C133.211 23.33 133.157 23.4007 133.157 23.4007C133.157 23.4007 133.017 23.5354 133.002 23.7844C132.987 24.0333 132.939 24.1898 133.064 24.4075C133.189 24.6251 133.43 24.8251 133.874 25.1339C134.317 25.4428 135.117 25.9965 135.295 26.1611C135.51 26.3257 136.008 26.6603 136.592 26.7841C137.175 26.9066 137.691 26.9338 138.169 26.8984C138.665 26.8304 138.884 26.6604 138.884 26.6604C138.884 26.6604 139.683 26.6563 140.347 26.2563L140.398 26.225C140.398 26.225 140.434 26.3692 140.596 26.4536C140.596 26.4536 140.242 26.5978 140.274 27.0168C140.311 27.4793 140.502 27.6834 140.844 27.7092C141.178 27.7337 141.662 27.5474 141.685 27.2004C141.708 26.8671 141.642 26.7188 141.591 26.6604C141.541 26.6019 141.519 26.5882 141.519 26.5882C141.519 26.5882 141.523 26.5896 141.53 26.5774C141.549 26.561 141.51 26.5053 141.51 26.5053C141.51 26.5053 141.54 26.4781 141.541 26.4427C141.541 26.4127 141.511 26.3665 141.503 26.3529C141.507 26.3529 141.517 26.3488 141.541 26.3175C141.858 26.0182 141.812 25.9271 141.759 25.5285C141.847 25.4904 142.942 25.0197 142.942 25.0197L143.969 24.5938C143.969 24.5938 144.833 24.2143 145.048 24.1163C145.263 24.0184 146.086 23.6524 146.221 23.5871C146.356 23.5218 147.143 23.164 147.342 23.0783C147.541 22.9926 148.324 22.6511 148.555 22.5804C148.787 22.5096 149.271 22.2893 149.271 22.2893C149.271 22.2893 149.34 22.3586 149.426 22.3518C149.411 22.428 149.421 22.5083 149.468 22.5287C149.478 22.5736 149.479 22.6321 149.479 22.6321C149.479 22.6321 149.238 22.8538 149.168 23.13C149.13 23.3912 149.218 23.647 149.428 23.7939C149.637 23.9408 150.004 23.9694 150.174 23.8361C150.344 23.7027 150.392 23.5762 150.392 23.5762C150.392 23.5762 150.719 23.2198 150.361 22.7668C150.51 22.5573 150.672 22.3097 150.672 22.3097C150.672 22.3097 151.114 22.3382 151.253 22.1954C151.392 22.0525 151.45 21.9151 151.45 21.9151C151.45 21.9151 151.663 21.7356 151.576 21.3233C151.486 21.0649 151.316 20.9479 151.172 20.8567C151.264 20.7057 151.576 20.3166 151.576 20.3166C151.576 20.3166 151.804 20.0418 152.011 19.6935C152.246 19.3466 152.552 18.9113 152.623 18.6977C152.676 18.4923 152.571 18.4161 152.478 18.4174L152.479 18.4215ZM125.967 7.10128C125.967 7.10128 125.778 7.06047 125.759 7.0183C125.784 6.98701 125.769 6.92443 125.769 6.92443L125.686 6.91354C125.686 6.91354 125.715 6.84824 125.812 6.81015C125.827 6.8564 125.923 7.01694 125.978 7.04823C125.965 7.07952 125.967 7.09992 125.967 7.09992V7.10128ZM126.482 7.68627C126.412 7.60193 126.277 7.4754 126.277 7.4754C126.259 7.45364 126.186 7.38562 126.186 7.38562C126.186 7.38562 126.205 7.36793 126.251 7.37473C126.296 7.38153 126.436 7.40602 126.454 7.41963C126.471 7.43459 126.493 7.48901 126.526 7.57744C126.558 7.66587 126.674 7.87129 126.675 7.87946C126.677 7.88626 126.553 7.76926 126.482 7.68491V7.68627ZM128.696 5.82519C128.696 5.82519 128.879 6.16802 128.862 6.4265C128.848 6.58976 128.82 6.66458 128.82 6.66458C128.82 6.66458 128.841 6.42922 128.705 6.15578C128.647 6.03334 128.611 5.92722 128.611 5.92722C128.611 5.92722 128.67 5.92042 128.694 5.82383L128.696 5.82519ZM145.08 22.0852L144.333 22.3763C144.333 22.3763 143.423 22.7314 143.108 22.8634C142.778 22.9912 141.884 23.33 141.884 23.33C141.884 23.33 141.221 23.6062 140.929 23.7653C140.634 23.9204 140.182 24.1599 140.182 24.1599C140.182 24.1599 139.462 24.4891 139.196 24.5122C138.887 24.5557 137.834 24.7149 137.536 24.7925C137.486 24.7516 137.428 24.7149 137.39 24.6986C137.39 24.6986 137.345 24.6932 137.193 24.4809C137.041 24.2687 136.862 23.8714 136.841 23.7653C136.839 23.7408 136.82 23.6823 136.82 23.6823C136.82 23.6823 136.947 23.4592 136.758 23.1327C136.731 23.0375 136.709 22.9518 136.477 22.9246C136.454 22.8729 136.464 22.8457 136.482 22.8171H136.484C136.516 22.7777 137.443 22.0648 137.477 22.0036C137.511 21.9423 137.575 21.824 137.575 21.824C137.575 21.824 138.698 20.8105 138.91 20.6676C139.122 20.5248 139.442 20.1724 139.611 19.9833C139.778 19.7956 140.034 19.0881 140.034 19.0881C140.54 19.216 141.824 19.397 141.824 19.397L142.084 19.6418C142.084 19.6418 142.495 19.6446 142.572 19.6745C142.65 19.7044 144.054 20.3261 144.054 20.3261C144.054 20.3261 144.076 20.4513 144.086 20.4894C144.097 20.5275 144.462 20.752 144.607 20.8635C144.753 20.9751 144.836 21.1397 144.836 21.1397C144.836 21.1397 144.826 21.424 144.836 21.4648C144.843 21.4975 145.097 21.8675 145.209 22.0267L145.08 22.0825V22.0852Z" fill="white"/>
</svg>
